#!OML:ASF Y:\EmotionMaleHayes\Project 1\Capture day 1\Session 1\Male1.ASF
:FULLY-SPECIFIED
:DEGREES
442
root -12.9762 16.7933 0.345003 99.2335 91.3652 102.742
lowerback 8.0157 0.899879 -0.0901131
upperback 9.18175 1.55471 2.90729
thorax 5.00042 0.862931 3.04344
lowerneck -23.2984 1.18817 3.84903
upperneck 20.3011 -0.969704 5.58178
head 10.4026 0.629894 1.23159
rclavicle 9.74045e-015 2.38542e-014
rhumerus -20.8004 9.94509 -86.6316
rradius 27.7966
rwrist -0.486808
rhand -11.3634 -33.1958
rfingers 7.12502
rthumb 14.6704 -62.6568
lclavicle 9.74045e-015 2.38542e-014
lhumerus -28.1442 -13.083 92.0271
lradius 20.1733
lwrist -22.4732
lhand -6.20365 -24.984
lfingers 7.12502
lthumb 19.6366 4.04424
rfemur -0.715635 0.528817 24.2922
rtibia 20.2909
rfoot -20.2945 -5.66355
rtoes 13.6801
lfemur -5.03724 7.41397 -12.2429
ltibia 61.2986
lfoot -6.47626 3.51671
ltoes -9.31815
443
root -12.8665 16.8108 0.349248 96.5519 91.5943 100.091
lowerback 7.70983 0.94718 0.115967
upperback 9.34019 1.62575 2.96827
thorax 5.34105 0.908471 3.00315
lowerneck -23.4869 1.17467 3.84503
upperneck 20.4749 -0.940761 5.2841
head 10.4954 0.610975 1.13383
rclavicle 1.07344e-014 2.14687e-014
rhumerus -20.3755 10.6587 -86.6235
rradius 27.9114
rwrist -0.620005
rhand -11.5368 -33.4393
rfingers 7.12502
rthumb 14.5033 -62.9124
lclavicle 1.07344e-014 2.14687e-014
lhumerus -27.7069 -12.4715 91.7195
lradius 20.3079
lwrist -21.6443
lhand -7.03651 -25.2863
lfingers 7.12502
lthumb 18.8357 3.82177
rfemur 0.140697 0.333228 24.5226
rtibia 19.5774
rfoot -20.4049 -5.47184
rtoes 13.6536
lfemur -6.26388 7.474 -11.9715
ltibia 61.1096
lfoot -7.12613 3.82986
ltoes -9.51149
444
root -12.7554 16.8262 0.350932 95.4739 91.5143 99.0227
lowerback 7.71944 1.03882 0.189601
upperback 9.29331 1.75137 2.81328
thorax 5.28412 0.979891 2.79323
lowerneck -23.5194 1.13526 3.75959
upperneck 20.4433 -0.988158 5.37684
head 10.4914 0.594192 1.17373
rclavicle -1.19271e-014 -1.98785e-014
rhumerus -20.232 10.992 -86.7783
rradius 28.0177
rwrist -0.489694
rhand -11.6733 -33.4611
rfingers 7.12502
rthumb 14.3718 -62.9435
lclavicle -1.19271e-014 -1.98785e-014
lhumerus -27.5383 -11.9976 91.3446
lradius 20.4007
lwrist -20.8785
lhand -8.19625 -25.5666
lfingers 7.12502
lthumb 17.72 3.64599
rfemur 0.978526 0.0531257 24.3244
rtibia 18.8987
rfoot -20.538 -5.1921
rtoes 13.416
lfemur -7.51043 7.48639 -12.1109
ltibia 60.9187
lfoot -7.73504 3.96001
ltoes -7.95934
445
root -12.6469 16.8385 0.350423 94.6652 91.5476 98.2023
lowerback 7.82873 1.12255 0.436105
upperback 9.15857 1.87138 2.67837
thorax 5.08277 1.05753 2.50162
lowerneck -23.4764 1.00754 3.67995
upperneck 20.5936 -1.11606 5.26981
head 10.5382 0.52021 1.12983
rclavicle -1.74931e-014 -2.8625e-014
rhumerus -20.3123 11.1818 -86.9678
rradius 28.2382
rwrist -0.41986
rhand -12.1262 -32.8928
rfingers 7.12502
rthumb 13.9354 -62.4059
lclavicle -1.74931e-014 -2.8625e-014
lhumerus -27.5924 -11.8823 91.1623
lradius 20.677
lwrist -19.6834
lhand -9.2348 -25.6557
lfingers 7.12502
lthumb 16.7204 3.64427
rfemur 1.73956 -0.217478 24.2532
rtibia 18.2822
rfoot -20.6202 -4.91287
rtoes 13.018
lfemur -8.7837 7.5432 -12.1348
ltibia 60.7285
lfoot -8.35316 3.99774
ltoes -6.55783
446
root -12.5428 16.8422 0.345485 111.961 91.9492 115.352
lowerback 8.06168 1.41978 0.951525
upperback 8.8402 2.27959 2.56966
thorax 4.61803 1.28861 2.06468
lowerneck -23.3822 0.902104 3.53791
upperneck 20.9092 -1.20455 5.20777
head 10.6365 0.470503 1.12062
rclavicle 2.46493e-014 3.81667e-014
rhumerus -20.6278 11.1845 -87.1735
rradius 28.4939
rwrist -0.362291
rhand -12.6057 -31.9591
rfingers 7.12502
rthumb 13.4732 -61.5033
lclavicle 2.46493e-014 3.81667e-014
lhumerus -28.04 -11.9796 91.1041
lradius 21.3088
lwrist -18.1329
lhand -9.82972 -25.525
lfingers 7.12502
lthumb 16.1476 3.82236
rfemur 2.11355 -0.205829 24.4566
rtibia 17.9835
rfoot -20.6743 -4.32382
rtoes 12.3129
lfemur -10.0516 8.30782 -11.8598
ltibia 60.3275
lfoot -8.95181 4.07326
ltoes -7.18096
447
root -12.4182 16.8505 0.352264 97.6696 92.0782 101.084
lowerback 7.82615 1.36121 1.23786
upperback 8.8699 2.20905 2.59975
thorax 4.79199 1.26866 1.94869
lowerneck -23.3458 0.87893 3.44279
upperneck 20.94 -1.17809 5.10544
head 10.6387 0.461138 1.10319
rclavicle 5.96354e-016 -4.77083e-015
rhumerus -20.3883 11.4312 -87.2048
rradius 28.6287
rwrist -0.423378
rhand -12.4037 -32.1255
rfingers 7.12502
rthumb 13.668 -61.6567
lclavicle 5.96354e-016 -4.77083e-015
lhumerus -28.0046 -11.9483 90.9995
lradius 21.9281
lwrist -16.4881
lhand -10.2746 -25.534
lfingers 7.12502
lthumb 15.7192 3.84759
rfemur 3.17771 -0.433701 24.7764
rtibia 17.0601
rfoot -21.0509 -4.49532
rtoes 12.6953
lfemur -11.2197 8.13213 -11.5682
ltibia 59.8455
lfoot -9.43416 3.90748
ltoes -6.87424
448
root -12.3239 16.857 0.353168 99.4413 92.4255 102.811
lowerback 7.99548 1.48554 1.6691
upperback 8.76895 2.39656 2.5738
thorax 4.60415 1.38587 1.66399
lowerneck -23.2987 0.810884 3.34876
upperneck 20.9706 -1.21948 5.02798
head 10.6403 0.424488 1.0839
rclavicle 1.43125e-014 -1.74931e-014
rhumerus -20.2099 11.6697 -87.2892
rradius 28.7218
rwrist -0.52201
rhand -12.0933 -32.8127
rfingers 7.12502
rthumb 13.9671 -62.3235
lclavicle 1.43125e-014 -1.74931e-014
lhumerus -27.907 -12.0097 90.8836
lradius 22.3144
lwrist -15.0354
lhand -11.1216 -25.7405
lfingers 7.12502
lthumb 14.9034 3.7034
rfemur 3.67691 -0.426891 25.1527
rtibia 16.7258
rfoot -21.3887 -4.3451
rtoes 13.3514
lfemur -12.5329 8.37402 -11.2595
ltibia 59.3034
lfoot -9.71306 4.18231
ltoes -7.46787
449
root -12.2225 16.8614 0.349034 104.733 92.819 108.025
lowerback 8.09744 1.66281 2.12036
upperback 8.67953 2.65367 2.54763
thorax 4.47054 1.53747 1.36777
lowerneck -23.413 0.682899 3.22072
upperneck 21.0787 -1.32895 4.87436
head 10.6996 0.347832 1.03411
rclavicle 3.43897e-014 1.59028e-014
rhumerus -19.9811 11.8189 -87.3504
rradius 28.8201
rwrist -0.567591
rhand -11.9205 -32.9977
rfingers 7.12502
rthumb 14.1336 -62.4969
lclavicle 3.43897e-014 1.59028e-014
lhumerus -27.8236 -12.0706 90.8177
lradius 22.7132
lwrist -13.8031
lhand -12.0639 -25.7318
lfingers 7.12502
lthumb 13.9954 3.77711
rfemur 4.1408 -0.420966 25.468
rtibia 16.4026
rfoot -21.3222 -4.07131
rtoes 12.1251
lfemur -13.7505 8.73926 -10.9541
ltibia 58.5536
lfoot -10.2415 4.3545
ltoes -8.94132
450
root -12.1015 16.864 0.35997 93.8174 92.8936 97.156
lowerback 8.01173 1.59177 2.24853
upperback 8.67192 2.56344 2.55233
thorax 4.5162 1.49975 1.30831
lowerneck -23.3483 0.570825 3.05322
upperneck 21.0104 -1.41089 4.8352
head 10.6627 0.287788 1.03278
rclavicle 1.98785e-016 2.0276e-014
rhumerus -19.9749 12.3974 -87.4802
rradius 29.4023
rwrist -1.29178
rhand -11.5917 -33.3598
rfingers 7.12502
rthumb 14.4504 -62.8367
lclavicle 1.98785e-016 2.0276e-014
lhumerus -27.8331 -12.1342 90.7563
lradius 23.3688
lwrist -12.6048
lhand -12.5389 -25.311
lfingers 7.12502
lthumb 13.5376 4.22896
rfemur 5.24303 -0.618268 25.7124
rtibia 15.4052
rfoot -21.2629 -4.45927
rtoes 11.0895
lfemur -14.8238 8.36422 -10.7777
ltibia 57.7146
lfoot -10.8864 4.07565
ltoes -8.59609
451
root -11.9986 16.8606 0.358462 97.1297 93.0229 100.391
lowerback 7.97294 1.72808 2.44215
upperback 8.62946 2.75023 2.47034
thorax 4.50518 1.60388 1.10831
lowerneck -23.1927 0.553848 2.88188
upperneck 20.8507 -1.3671 4.86638
head 10.5751 0.289956 1.07554
rclavicle 3.79679e-014 -1.19271e-015
rhumerus -20.1098 13.1543 -87.6316
rradius 30.1955
rwrist -2.12224
rhand -11.6494 -33.3746
rfingers 7.12502
rthumb 14.3948 -62.8555
lclavicle 3.79679e-014 -1.19271e-015
lhumerus -27.7848 -12.0317 90.6195
lradius 24.088
lwrist -11.3642
lhand -12.676 -25.1317
lfingers 7.12502
lthumb 13.4055 4.41703
rfemur 5.83408 -0.67652 25.7562
rtibia 14.8589
rfoot -21.2916 -4.28969
rtoes 11.0487
lfemur -15.9291 8.59515 -10.7173
ltibia 56.7023
lfoot -11.2005 4.21548
ltoes -8.10274
